:FULLY-SPECIFIED
:FORCE-ALL-JOINTS-BE-3DOF
:DEGREES
238
root 5.51917 15.6259 -25.8328 9.52274 25.7847 -6.69168
lfemur -39.7667 32.6902 -6.7626
ltibia 51.8661 -0 0
lfoot -15.9363 5.56701 0.00855691
ltoes 2.42631 -0 0
rfemur -15.4502 -8.55371 4.06386
rtibia 34.516 -0 0
rfoot -40.3256 -11.662 0.7447
rtoes 56.9559 -0 0
lowerback 0.9294 -2.52234 2.45566
upperback -1.18153 -3.26494 3.13205
thorax -1.68207 -1.63575 1.91964
lowerneck -10.4595 -2.48889 0.386841
upperneck 1.66636 -3.36477 0.149213
head 2.32942 -1.66563 -0.187337
lclavicle 0 0 0
lhumerus -55.476 -34.2237 122.18
lradius 62.3714 -0 0
lwrist 17.791 0 0
lhand 6.9094 13.0434 0.10151
lfingers 0 0 0
lthumb 32.1757 40.0896 0.0525325
rclavicle 0 0 0
rhumerus -35.496 -15.7511 -67.7963
rradius 92.3817 -0 0
rwrist -35.1324 0 0
rhand -3.65482 -31.7987 0.86064
rfingers 0 0 0
rthumb 20.7782 -51.2109 5.36526
239
root 5.59319 15.6445 -25.8162 9.26942 28.0303 -6.80385
lfemur -40.3972 32.3373 -8.07801
ltibia 51.5633 -0 0
lfoot -16.3777 5.43689 0.00699221
ltoes 6.31963 -0 0
rfemur -13.7136 -6.29432 4.05522
rtibia 33.6649 -0 0
rfoot -41.8785 -14.8853 0.607915
rtoes 56.6672 -0 0
lowerback 0.823142 -2.63397 2.49483
upperback -1.30709 -3.40696 3.39068
thorax -1.73754 -1.70556 2.16551
lowerneck -10.1797 -2.83121 0.293489
upperneck 1.81621 -3.80682 0.105172
head 2.3279 -1.88784 -0.205888
lclavicle 0 0 0
lhumerus -55.7525 -33.369 122.447
lradius 62.6912 -0 0
lwrist 17.6093 0 0
lhand 5.6851 12.4868 0.0829372
lfingers 0 0 0
lthumb 31.0124 39.7865 0.0429223
rclavicle 0 0 0
rhumerus -35.8977 -18.5087 -67.315
rradius 89.1565 -0 0
rwrist -35.8318 0 0
rhand -13.1807 -32.411 0.698078
rfingers 0 0 0
rthumb 11.8706 -55.3064 4.34974
240
root 5.65635 15.6599 -25.8015 9.03818 30.0019 -6.91384
lfemur -40.9408 32.0175 -9.22511
ltibia 51.2973 -0 0
lfoot -16.7653 5.32264 0.00479143
ltoes 9.73876 -0 0
rfemur -12.1941 -4.31068 4.10428
rtibia 32.9174 -0 0
rfoot -43.2339 -17.712 0.41599
rtoes 56.4137 -0 0
lowerback 0.729755 -2.73193 2.5294
upperback -1.4179 -3.53121 3.61809
thorax -1.7865 -1.76666 2.3815
lowerneck -9.93352 -3.13146 0.210103
upperneck 1.94815 -4.19494 0.06552
head 2.32663 -2.08297 -0.222177
lclavicle 0 0 0
lhumerus -55.9891 -32.6175 122.675
lradius 62.9721 -0 0
lwrist 17.4498 0 0
lhand 4.61011 11.9985 0.0568228
lfingers 0 0 0
lthumb 29.9909 39.5205 0.0294086
rclavicle 0 0 0
rhumerus -36.2767 -20.9275 -66.8683
rradius 86.3242 -0 0
rwrist -36.446 0 0
rhand -21.5443 -32.9201 0.473399
rfingers 0 0 0
rthumb 4.13535 -58.7311 2.94828
241
root 5.70545 15.6716 -25.7896 8.84763 31.5703 -7.00964
lfemur -41.3665 31.7565 -10.1323
ltibia 51.0857 -0 0
lfoot -17.0737 5.23175 0.00248832
ltoes 12.4591 -0 0
rfemur -10.9863 -2.73381 4.18084
rtibia 32.3228 -0 0
rfoot -44.3046 -19.9573 0.215718
rtoes 56.212 -0 0
lowerback 0.655406 -2.80984 2.55703
upperback -1.50643 -3.62976 3.79922
thorax -1.82562 -1.81515 2.55339
lowerneck -9.73727 -3.37009 0.142819
upperneck 2.05337 -4.50366 0.0333169
head 2.32566 -2.23823 -0.235135
lclavicle 0 0 0
lhumerus -56.1735 -32.019 122.853
lradius 63.1956 -0 0
lwrist 17.3228 0 0
lhand 3.755 11.6103 0.0295042
lfingers 0 0 0
lthumb 29.1781 39.309 0.0152705
rclavicle 0 0 0
rhumerus -36.5974 -22.8499 -66.4951
rradius 84.0707 -0 0
rwrist -36.9346 0 0
rhand -28.1967 -33.2984 0.243176
rfingers 0 0 0
rthumb -1.94473 -61.2991 1.51401
242
root 5.73727 15.679 -25.7816 8.71825 32.6062 -7.07722
lfemur -41.6443 31.581 -10.7289
ltibia 50.946 -0 0
lfoot -17.2774 5.17172 0.000698704
ltoes 14.256 -0 0
rfemur -10.1881 -1.69324 4.2496
rtibia 31.9299 -0 0
rfoot -45.0071 -21.4381 0.0605031
rtoes 56.0787 -0 0
lowerback 0.606272 -2.86128 2.57533
upperback -1.56508 -3.6947 3.91896
thorax -1.85154 -1.84711 2.66695
lowerneck -9.60745 -3.52759 0.0979162
upperneck 2.12299 -4.70756 0.0117255
head 2.32503 -2.34079 -0.243693
lclavicle 0 0 0
lhumerus -56.2934 -31.6234 122.969
lradius 63.3432 -0 0
lwrist 17.239 0 0
lhand 3.19028 11.3541 0.00828337
lfingers 0 0 0
lthumb 28.6413 39.1695 0.00428737
rclavicle 0 0 0
rhumerus -36.8194 -24.1187 -66.2392
rradius 82.5821 -0 0
rwrist -37.2574 0 0
rhand -32.59 -33.5325 0.0677037
rfingers 0 0 0
rthumb -5.92152 -62.9052 0.421479
243
root 6.11463 15.8042 -25.7421 8.6708 32.9802 -7.1025
lfemur -41.744 31.517 -10.9438
ltibia 50.8955 0 0
lfoot -17.351 5.15004 0
ltoes 14.9049 0 0
rfemur -9.8996 -1.31773 4.27798
rtibia 31.7881 0 0
rfoot -45.2598 -21.9724 0
rtoes 56.0306 0 0
lowerback 0.588524 -2.87985 2.58195
upperback -1.5863 -3.71812 3.96222
thorax -1.86092 -1.85864 2.70796
lowerneck -9.56054 -3.58444 0.0816116
upperneck 2.14816 -4.78118 0.0038659
head 2.32481 -2.37782 -0.246784
lclavicle 1.0461e-14 -5.96354e-15 0
lhumerus -56.3364 -31.4805 123.01
lradius 63.3965 0 0
lwrist 17.2087 0 0
lhand 2.98637 11.2617 0
lfingers 7.12502 0 0
lthumb 28.4475 39.1191 0
rclavicle 1.0461e-14 -5.96354e-15 0
rhumerus -36.9016 -24.5766 -66.1448
rradius 82.0446 0 0
rwrist -37.374 0 0
rhand -34.1763 -33.6137 0
rfingers 7.12502 0 0
rthumb -7.34973 -63.466 0
244
root 6.21605 15.8393 -25.7337 8.65797 33.9731 -6.71296
lfemur -41.2873 30.8201 -11.3317
ltibia 50.4146 -0 0
lfoot -17.2363 4.21395 -0.0145358
ltoes 17.3516 -0 0
rfemur -10.4433 -0.984858 4.09595
rtibia 33.8204 -0 0
rfoot -41.4163 -21.2009 0.441714
rtoes 52.0242 -0 0
lowerback 0.687392 -2.86065 2.32962
upperback -1.53213 -3.69575 3.88055
thorax -1.85161 -1.84506 2.76754
lowerneck -9.5696 -3.86133 -0.0575112
upperneck 2.17735 -5.13573 0.0474307
head 2.34501 -2.55418 -0.229188
lclavicle 0 0 0
lhumerus -56.0125 -31.6368 122.75
lradius 63.2682 -0 0
lwrist 17.3918 0 0
lhand 3.27065 11.2951 0.00127982
lfingers 0 0 0
lthumb 28.7186 39.1016 -0.000637797
rclavicle 0 0 0
rhumerus -37.2808 -23.402 -66.1447
rradius 79.3709 -0 0
rwrist -32.5094 0 0
rhand -32.9723 -31.7318 0.314895
rfingers 0 0 0
rthumb -6.18774 -61.5693 0.306201
245
root 6.31907 15.8769 -25.7283 8.65373 35.3951 -6.14735
lfemur -40.6295 29.8268 -11.8936
ltibia 49.7258 -0 0
lfoot -17.0717 2.87332 -0.0320854
ltoes 20.8554 -0 0
rfemur -11.2237 -0.511198 3.8298
rtibia 36.731 -0 0
rfoot -35.9018 -20.0483 0.981964
rtoes 46.2866 -0 0
lowerback 0.828828 -2.83239 1.96833
upperback -1.45461 -3.66357 3.76363
thorax -1.83826 -1.82564 2.85286
lowerneck -9.5814 -4.25791 -0.256756
upperneck 2.21871 -5.64352 0.109548
head 2.37386 -2.80676 -0.204092
lclavicle 0 0 0
lhumerus -55.5463 -31.8584 122.375
lradius 63.0844 -0 0
lwrist 17.654 0 0
lhand 3.67776 11.343 0.0028239
lfingers 0 0 0
lthumb 29.1067 39.0766 -0.00140728
rclavicle 0 0 0
rhumerus -37.8182 -21.72 -66.1591
rradius 75.5419 -0 0
rwrist -25.5429 0 0
rhand -31.2315 -29.0259 0.696479
rfingers 0 0 0
rthumb -4.50734 -58.843 0.677233
